<svg height="512pt" viewBox="0 0 512 512" width="512pt" xmlns="http://www.w3.org/2000/svg"><path d="m512 60v195.050781c-11.632812-8.753906-25.230469-15.03125-40-18.039062v-177.011719c0-11.027344-8.972656-20-20-20h-392c-11.027344 0-20 8.972656-20 20v392c0 11.027344 8.972656 20 20 20h177.011719c3.007812 14.769531 9.285156 28.367188 18.039062 40h-195.050781c-33.085938 0-60-26.914062-60-60v-392c0-33.085938 26.914062-60 60-60h392c33.085938 0 60 26.914062 60 60zm0 275c0 33.085938-26.914062 60-60 60-26.074219 0-48.304688-16.722656-56.558594-40h-40.441406v40.441406c23.277344 8.253906 40 30.484375 40 56.558594 0 33.085938-26.914062 60-60 60s-60-26.914062-60-60c0-26.074219 16.722656-48.304688 40-56.558594v-40.441406h-71c-22.089844 0-40-17.910156-40-40h111v-111c22.089844 0 40 17.910156 40 40v71h40.441406c8.253906-23.277344 30.484375-40 56.558594-40 33.085938 0 60 26.914062 60 60zm-157 117c0-11.027344-8.972656-20-20-20s-20 8.972656-20 20 8.972656 20 20 20 20-8.972656 20-20zm117-117c0-11.027344-8.972656-20-20-20s-20 8.972656-20 20 8.972656 20 20 20 20-8.972656 20-20zm-117-256h-40v40h40zm-237 0h-40v40h40zm79 0h-40v40h40zm237 0h-40v40h40zm-315 314h-40v40h40zm37 40h40v-40h-40zm80-354v40h40v-40zm0 0"/></svg>